<mxfile modified="2022-01-13T18:21:55.950Z" host="app.diagrams.net" agent="5.0 (iPhone; CPU iPhone OS 15_2 like Mac OS X) AppleWebKit/605.1.15 (KHTML, like Gecko) Version/15.2 Mobile/15E148 Safari/604.1" etag="KMGtTtpXP3370VFuNmwA" version="16.2.6" type="github" pages="2">
  <diagram id="VbGbUipla008CxeSZOJQ" name="Page-1">
    <mxGraphModel dx="394" dy="710" grid="0" gridSize="10" guides="1" tooltips="1" connect="1" arrows="1" fold="1" page="0" pageScale="1" pageWidth="850" pageHeight="1100" math="1" shadow="0">
      <root>
        <mxCell id="0" />
        <mxCell id="1" parent="0" />
        <mxCell id="J5J7sOBJN_SNSv-nKwRe-2" value="" style="edgeStyle=orthogonalEdgeStyle;rounded=0;orthogonalLoop=1;jettySize=auto;html=1;" parent="1" source="PxQ6kvhh4_ctL7AA62js-1" target="J5J7sOBJN_SNSv-nKwRe-1" edge="1">
          <mxGeometry relative="1" as="geometry" />
        </mxCell>
        <mxCell id="PxQ6kvhh4_ctL7AA62js-1" value="new label" style="rounded=0;whiteSpace=wrap;html=1;" parent="1" vertex="1">
          <mxGeometry x="110" y="70" width="120" height="60" as="geometry" />
        </mxCell>
        <mxCell id="J5J7sOBJN_SNSv-nKwRe-1" value="test" style="rounded=0;whiteSpace=wrap;html=1;" parent="1" vertex="1">
          <mxGeometry x="110" y="210" width="120" height="60" as="geometry" />
        </mxCell>
      </root>
    </mxGraphModel>
  </diagram>
  <diagram id="UXm3N8zAdDeakjRFu-a9" name="Page-2">
    <mxGraphModel dx="1209" dy="1285" grid="1" gridSize="10" guides="1" tooltips="1" connect="1" arrows="1" fold="1" page="1" pageScale="1" pageWidth="850" pageHeight="1100" math="0" shadow="0">
      <root>
        <mxCell id="14_Mb_wE_xqcZyIOXb95-0" />
        <mxCell id="14_Mb_wE_xqcZyIOXb95-1" parent="14_Mb_wE_xqcZyIOXb95-0" />
        <mxCell id="14_Mb_wE_xqcZyIOXb95-2" value="" style="edgeStyle=orthogonalEdgeStyle;rounded=0;orthogonalLoop=1;jettySize=auto;html=1;fillColor=#fff2cc;strokeColor=#d6b656;" parent="14_Mb_wE_xqcZyIOXb95-1" source="14_Mb_wE_xqcZyIOXb95-3" target="14_Mb_wE_xqcZyIOXb95-4" edge="1">
          <mxGeometry relative="1" as="geometry" />
        </mxCell>
        <mxCell id="14_Mb_wE_xqcZyIOXb95-3" value="new label" style="rounded=0;whiteSpace=wrap;html=1;fillColor=#fff2cc;strokeColor=#d6b656;" parent="14_Mb_wE_xqcZyIOXb95-1" vertex="1">
          <mxGeometry x="20" y="20" width="120" height="60" as="geometry" />
        </mxCell>
        <mxCell id="14_Mb_wE_xqcZyIOXb95-4" value="test" style="rounded=0;whiteSpace=wrap;html=1;fillColor=#fff2cc;strokeColor=#d6b656;" parent="14_Mb_wE_xqcZyIOXb95-1" vertex="1">
          <mxGeometry x="220" y="20" width="120" height="60" as="geometry" />
        </mxCell>
      </root>
    </mxGraphModel>
  </diagram>
</mxfile>
